<svg xmlns="http://www.w3.org/2000/svg" viewBox="0 0 28.71 27.67"><defs><style>.cls-1{fill:#ececec;}</style></defs><title>miele_calendar</title><g id="Слой_2" data-name="Слой 2"><g id="Block_2" data-name="Block 2"><g id="Field_2" data-name="Field 2"><path id="calendar_icon" data-name="calendar icon" class="cls-1" d="M28.71,27.67H0V2H4V0h6l0,2h8.7V0h6V2h4ZM26.71,4H2V25.67H26.71Zm-17,5h3.63V6.14H9.76Zm5.87,0h3.64V6.14H15.63Zm5.45,0h3.63V6.14H21.08ZM9.76,13.84h3.63V11H9.76ZM4,13.84H7.63V11H4Zm11.63,0h3.64V11H15.63Zm5.45,0h3.63V11H21.08ZM9.76,18.68h3.63V15.83H9.76ZM4,18.68H7.63V15.83H4Zm11.63,0h3.64V15.83H15.63Zm5.45,0h3.63V15.83H21.08ZM9.76,23.53h3.63V20.68H9.76ZM4,23.53H7.63V20.68H4Zm11.63,0h3.64V20.68H15.63Zm5.45,0h3.63V20.68H21.08Z"/></g></g></g></svg>