<svg xmlns="http://www.w3.org/2000/svg" viewBox="0 0 51.84 15.84"><defs><style>.cls-1{fill:#b0b0b0;}</style></defs><title>Miele Visa</title><g id="Слой_2" data-name="Слой 2"><g id="Block_1" data-name="Block 1"><g id="visa_logo" data-name="visa logo"><g id="footer"><g id="Group"><path id="Combined-Shape" class="cls-1" d="M33.92,0a10.88,10.88,0,0,1,3.76.64h0L37.11,4l-.37-.18a7.84,7.84,0,0,0-3.14-.58c-1.65,0-2.41.68-2.41,1.32s.89,1.19,2.36,1.9C36,7.52,37.09,8.85,37.07,10.6c0,3.18-2.89,5.24-7.31,5.24A13.28,13.28,0,0,1,25.09,15h0l.59-3.43.54.24a8.86,8.86,0,0,0,4,.8c1.2,0,2.5-.46,2.51-1.49,0-.67-.54-1.15-2.18-1.91s-3.7-2-3.67-4.17C26.85,2.08,29.77,0,33.92,0ZM48.44.28l3.4,15.34H48l-.51-2.3H42.06l-.88,2.31H36.77L43,1.55A2.1,2.1,0,0,1,45.2.28ZM25.09.27,22.46,15.61h-4.2L20.89.27ZM6.82.27a1.75,1.75,0,0,1,1.9,1.29h0l1.47,7.06.44,2.12L14.74.28h4.45L12.58,15.59H8.14L4.41,2.27A17.44,17.44,0,0,0,0,.59H0L.05.27ZM45.5,4.42l-.56,1.46-1.67,4.29h3.48l-1-4.43Z"/></g></g></g></g></g></svg>