<svg xmlns="http://www.w3.org/2000/svg" viewBox="0 0 28.8 17.8"><defs><style>.cls-1{fill:#b0b0b0;}</style></defs><title>Miele Maestr</title><g id="Слой_2" data-name="Слой 2"><g id="Block_1" data-name="Block 1"><g id="MC_logo" data-name="MC logo"><g id="footer"><g id="Group"><path id="Shape" class="cls-1" d="M13.61,16.14l.22.17a8.9,8.9,0,1,1,0-14.82.88.88,0,0,0-.2.18A9.54,9.54,0,0,0,10.31,8.9,9.64,9.64,0,0,0,13.61,16.14ZM19.9,0A8.87,8.87,0,0,0,15,1.49a.88.88,0,0,1,.2.18A9.54,9.54,0,0,1,18.49,8.9a9.64,9.64,0,0,1-3.3,7.24l-.22.17A8.9,8.9,0,1,0,19.9,0ZM14.4,1.91l-.34.28a8.89,8.89,0,0,0,0,13.42l.34.28.34-.28a8.89,8.89,0,0,0,0-13.42Z"/></g></g></g></g></g></svg>