<svg xmlns="http://www.w3.org/2000/svg" viewBox="0 0 147.09 26.96"><defs><style>.cls-1{fill:#fff;}</style></defs><title>Miele Logo</title><g id="Слой_2" data-name="Слой 2"><g id="Header"><g id="Logo"><path class="cls-1" d="M130.92,18.05V20c0,1.61,1.45,3.09,3.73,3.09a4.89,4.89,0,0,0,4.85-3.51h7.32C145.73,22.94,141.23,27,133,27c-10.78,0-14.16-5.83-14.16-10.3,0-4.76,3.91-10.42,14.15-10.42,8.85,0,14.14,5.13,14.14,10.42a9.76,9.76,0,0,1-.08,1.39Zm0-3.22H135V12.21a2.05,2.05,0,0,0-4.1,0Zm-30,7.11H98v4.11h19.69V21.94h-3V1.05H98V5.16h2.92ZM80.59,18.05V20c0,1.61,1.46,3.09,3.74,3.09a4.89,4.89,0,0,0,4.85-3.51h7.33C95.41,22.94,90.91,27,82.64,27c-10.78,0-14.16-5.83-14.16-10.3,0-4.76,3.91-10.42,14.15-10.42,8.85,0,14.14,5.13,14.14,10.42a11.13,11.13,0,0,1-.07,1.39Zm0-3.22H84.7V12.21a2.06,2.06,0,0,0-4.11,0ZM62,3.63,60.12,0l-6,3.1L56,6.76Zm2.39,3.62H48.24v4.11h2.95V21.94H48.24v4.11H67.36V21.94h-3ZM30.86,1.05H45.58V5.16H42.63V21.94h2.95v4.11H26.45V21.94H29.4V11.06l-10.87,15-10.91-15V21.94h3v4.11H0V21.94H2.92V5.16H0V1.05H16.7l7.1,9.75Z"/></g></g></g></svg>