<svg xmlns="http://www.w3.org/2000/svg" viewBox="0 0 57.33 16"><defs><style>.cls-1{fill:#b0b0b0;}</style></defs><title>Miele Mir</title><g id="Слой_2" data-name="Слой 2"><g id="Block_1" data-name="Block 1"><g id="mir_logo" data-name="mir logo"><g id="Group"><path id="Combined-Shape" class="cls-1" d="M5.11,0A2.92,2.92,0,0,1,7.86,1.93l.06.17,2.13,7.35h.36L12.54,2.1A2.92,2.92,0,0,1,15.16,0h5.29V16H15.34V6.54H15L12.06,16H8.4L5.48,6.54H5.11V16H0V0Zm52,7.6a6.25,6.25,0,0,1-5.63,3.66H46V16H40.84V7.6ZM27.77,0V9.46h.36l3.6-7.77A2.91,2.91,0,0,1,34.19,0h4.54V16H33.62V6.55h-.37l-3.6,7.76A2.91,2.91,0,0,1,27.2,16H22.66V0Zm23.9,0a5.67,5.67,0,0,1,5.66,5.63,5.36,5.36,0,0,1-.09,1h-9.5a7.16,7.16,0,0,1-6.85-5,.29.29,0,0,1,0-.1,2.68,2.68,0,0,1-.07-.27A7.39,7.39,0,0,1,40.6,0Z"/></g></g></g></g></svg>