<svg xmlns="http://www.w3.org/2000/svg" viewBox="0 0 30 30"><defs><style>.cls-1{fill:#ececec;}.cls-2{fill:#6b6b6b;}</style></defs><title>miele_question</title><g id="Слой_2" data-name="Слой 2"><g id="Block_2" data-name="Block 2"><g id="Field_1" data-name="Field 1"><g id="_icon" data-name="? icon"><circle class="cls-1" cx="15" cy="15" r="15"/><path class="cls-2" d="M11.23,12.82a4,4,0,0,1,.92-2.72,3.39,3.39,0,0,1,2.68-1,3.56,3.56,0,0,1,2.46.83,2.87,2.87,0,0,1,.92,2.24,3.15,3.15,0,0,1-.31,1.46A4.06,4.06,0,0,1,17,14.79c-.05.06-.19.18-.41.38a4.34,4.34,0,0,0-.37.36l-.27.3a1.25,1.25,0,0,0-.25.38c0,.09-.06.22-.12.41a1.81,1.81,0,0,0-.12.56c0,.2,0,.43,0,.7H14.1v-.1a7.69,7.69,0,0,1,.07-1.18,2.58,2.58,0,0,1,.33-.9A4.78,4.78,0,0,1,15,15c.15-.17.44-.46.86-.88a3.87,3.87,0,0,0,.71-.92,2.11,2.11,0,0,0,.2-.92,2,2,0,0,0-.53-1.47,1.91,1.91,0,0,0-1.42-.55c-1.4,0-2.15.86-2.24,2.56ZM15.57,19v1.62H13.89V19Z"/></g></g></g></g></svg>